<svg
      xmlns="http://www.w3.org/2000/svg"
      width="85"
      height="85/home/mudasar/Downloads/favicon.ico"
      viewBox="0 0 85 85"
      fill="none"
    >
      <path
        d="M77.2611 40.2676V19.7315C78.6528 19.7315 79.9874 20.2866 80.9714 21.2748C81.9555 22.263 82.5083 23.6033 82.5083 25.0009V34.999C82.5083 36.3965 81.9555 37.7368 80.9714 38.725C79.9874 39.7132 78.6528 40.2684 77.2611 40.2684V40.2676Z"
        fill="#fff"
      />
      <path
        d="M56.0371 57.7521H28.963C18.7953 57.7521 10.5227 49.4446 10.5227 39.2338V20.7661C10.5227 10.5553 18.7953 2.24775 28.963 2.24775H56.0371C66.2048 2.24775 74.4773 10.5553 74.4773 20.7661V39.2338C74.4789 49.4446 66.2064 57.7521 56.0371 57.7521ZM28.963 7.98977C21.9481 7.98977 16.2405 13.7215 16.2405 20.7661V39.2338C16.2405 46.2784 21.9481 52.0101 28.963 52.0101H56.0371C63.0519 52.0101 68.7595 46.2784 68.7595 39.2338V20.7661C68.7595 13.7215 63.0519 7.98977 56.0371 7.98977H28.963Z"
        fill="#fff"
      />
      <path
        d="M7.73887 19.7324V40.2685C6.34724 40.2685 5.0126 39.7134 4.02856 38.7252C3.04453 37.737 2.4917 36.3967 2.4917 34.9992V25.001C2.49191 23.6036 3.04483 22.2635 4.02884 21.2755C5.01285 20.2875 6.34737 19.7324 7.73887 19.7324Z"
        fill="#fff"
      />
      <path
        d="M19.9907 32.1957C20.2803 32.3537 20.5014 32.4786 20.7257 32.5988C21.926 33.2382 23.2041 33.3765 24.5279 33.1733C25.278 33.058 25.7644 32.5742 25.8564 31.9088C25.9485 31.2433 25.5983 30.626 24.9081 30.3004C23.7558 29.7566 22.595 29.2302 21.4451 28.6848C20.5644 28.2667 19.9907 27.5839 19.7475 26.6354C19.3414 25.0626 20.2409 23.466 21.8583 22.8843C22.9287 22.4994 24.04 22.4797 25.1465 22.6196C25.7927 22.6986 26.4223 22.9136 27.0606 23.063C27.2526 23.108 27.3203 23.2139 27.3156 23.4147C27.303 23.9829 27.3156 24.5512 27.3101 25.1195C27.3101 25.2072 27.2928 25.2942 27.2794 25.423C27.0763 25.3337 26.9111 25.2594 26.745 25.1859C25.5345 24.6642 24.2792 24.4888 22.9806 24.7275C22.718 24.7741 22.4666 24.8707 22.24 25.012C21.523 25.472 21.5427 26.3556 22.2904 26.7666C22.9035 27.1002 23.5496 27.3665 24.1793 27.6669C24.8475 27.983 25.5361 28.2675 26.1744 28.6382C27.477 29.3922 28.1577 30.8813 27.9059 32.2913C27.7822 33.0096 27.4418 33.6723 26.9306 34.1899C26.4195 34.7074 25.7623 35.0547 25.0482 35.1848C23.5347 35.4717 22.0425 35.3737 20.592 34.8228C20.0757 34.6276 19.9623 34.4553 19.956 33.8973C19.956 33.4634 19.956 33.0279 19.956 32.5948C19.9607 32.4841 19.9765 32.3767 19.9907 32.1957Z"
        fill="#fff"
      />
      <path
        d="M58.4919 31.2378C58.6359 32.1704 59.515 33.0438 60.4595 33.2406C61.4039 33.4374 62.2452 33.205 62.9599 32.5292C63.0874 32.4217 63.2468 32.3597 63.4132 32.353C63.9271 32.3309 64.4419 32.3435 64.9558 32.3467C65.0739 32.3467 65.1919 32.3633 65.3493 32.3759C65.136 32.9491 64.7999 33.4682 64.3647 33.8966C61.9619 36.3783 57.6521 35.3548 56.6415 32.0495C55.7813 29.2358 57.5073 26.4987 60.2194 26.0166C61.8399 25.7273 63.2889 26.1581 64.4238 27.395C65.0534 28.0818 65.4091 28.8967 65.221 29.8578C65.055 30.7082 64.434 31.2275 63.5683 31.233C62.0154 31.2441 60.4618 31.237 58.909 31.2378H58.4919ZM58.5651 29.6531H59.4418C60.5838 29.6531 61.7242 29.6578 62.8662 29.6531C63.2928 29.6531 63.4376 29.3852 63.2204 29.0208C63.1767 28.9509 63.1281 28.8844 63.0748 28.8216C62.1477 27.6874 60.328 27.5942 59.2482 28.628C58.9389 28.9071 58.7041 29.2595 58.5651 29.6531Z"
        fill="#fff"
      />
      <path
        d="M52.7749 28.9276C52.7749 27.018 52.7811 25.1085 52.7686 23.199C52.7686 22.8923 52.8662 22.8038 53.1566 22.8212C53.5776 22.8425 53.9995 22.8425 54.4205 22.8212C54.6881 22.8077 54.7503 22.9136 54.7487 23.1602C54.7417 25.0389 54.744 26.9176 54.744 28.7964C54.744 30.737 54.744 32.6776 54.744 34.6182C54.744 35.0687 54.744 35.0687 54.3049 35.0695H53.1959C52.7819 35.0695 52.7756 35.0632 52.7756 34.6569C52.7751 32.7485 52.7749 30.8387 52.7749 28.9276Z"
        fill="#fff"
      />
      <path
        d="M40.3931 31.4006H38.468C38.4609 31.2876 38.4491 31.1793 38.4491 31.0702C38.4491 30.4379 38.4594 29.8104 38.4491 29.1805C38.4208 27.8084 39.0701 26.8489 40.301 26.3565C41.9483 25.6989 43.5971 25.7171 45.1303 26.7248C45.9354 27.2535 46.3108 28.0502 46.3234 29.0121C46.3329 29.7954 46.3234 30.5794 46.3234 31.3888H44.3944C44.3881 31.2583 44.3763 31.1192 44.3763 30.9793C44.3763 30.3905 44.3637 29.8017 44.3763 29.2137C44.3897 28.6786 44.1465 28.3198 43.668 28.1364C42.8379 27.8047 41.9124 27.8073 41.0841 28.1435C40.6174 28.3284 40.3813 28.6817 40.39 29.2018C40.4018 29.9226 40.3931 30.6442 40.3931 31.4006Z"
        fill="#fff"
      />
      <path
        d="M37.4898 31.3926H35.5561C35.5498 31.2804 35.5387 31.1705 35.5387 31.0614C35.5387 30.4418 35.5309 29.8221 35.5387 29.2025C35.545 28.6848 35.3081 28.3212 34.8414 28.1418C33.9639 27.8027 33.073 27.794 32.2001 28.1616C31.7633 28.3457 31.5375 28.6848 31.5524 29.1843C31.5713 29.8166 31.5595 30.4441 31.5595 31.0741C31.5595 31.1744 31.55 31.2748 31.5445 31.395H29.6281C29.6218 31.2772 29.6116 31.1673 29.6116 31.0575C29.6116 30.4584 29.6116 29.8601 29.6116 29.261C29.6116 27.6802 30.3679 26.6172 31.894 26.1785C33.3461 25.7644 34.784 25.7992 36.1172 26.6061C37.0617 27.176 37.4882 28.0517 37.489 29.1472L37.4898 31.3926Z"
        fill="#fff"
      />
      <path
        d="M38.2068 37.4635C35.5254 37.4635 33.2304 36.5482 31.4076 34.5304C31.2203 34.3233 31.2958 33.8349 31.5398 33.7155C31.5819 33.7054 31.6256 33.7046 31.6681 33.7132C31.7105 33.7218 31.7505 33.7396 31.7854 33.7653C33.1005 34.7485 34.5825 35.3295 36.1928 35.5658C39.0033 35.9799 41.6312 35.5026 44.0041 33.8641C44.1293 33.778 44.2505 33.5567 44.4449 33.7653C44.681 34.0198 44.7195 34.2988 44.5417 34.5059C43.5972 35.5998 42.4355 36.3688 41.096 36.8817C40.1731 37.2399 39.1959 37.4366 38.2068 37.4635Z"
        fill="#fff"
      />
      <path
        d="M48.5121 30.6031C48.5121 29.2294 48.5184 27.855 48.5073 26.4813C48.5073 26.2347 48.5782 26.1541 48.8222 26.1652C49.2747 26.1802 49.7273 26.1794 50.1798 26.1652C50.3868 26.1596 50.471 26.2118 50.471 26.4386C50.4647 29.2165 50.4647 31.9952 50.471 34.7747C50.471 35.0118 50.3789 35.0797 50.1562 35.075C49.7241 35.0647 49.2904 35.0584 48.8599 35.075C48.5916 35.0868 48.5018 34.996 48.5042 34.7249C48.516 33.3504 48.5097 31.9767 48.5097 30.6023L48.5121 30.6031Z"
        fill="#fff"
      />
      <path
        d="M49.5204 22.6236C50.2358 22.6402 50.723 23.1705 50.701 23.9134C50.6852 24.5584 50.1343 25.0705 49.4629 25.0547C49.3038 25.0509 49.1469 25.0157 49.0013 24.951C48.8557 24.8864 48.7242 24.7935 48.6143 24.6778C48.5044 24.5621 48.4183 24.4258 48.3609 24.2767C48.3035 24.1276 48.2759 23.9686 48.2796 23.8087C48.2834 23.6489 48.3185 23.4913 48.3829 23.3451C48.4473 23.1989 48.5397 23.0668 48.6549 22.9565C48.7702 22.8462 48.9059 22.7597 49.0544 22.702C49.2029 22.6443 49.3612 22.6166 49.5204 22.6204V22.6236Z"
        fill="#fff"
      />
    </svg>